<svg xmlns="http://www.w3.org/2000/svg" viewBox="0 0 636 113"><defs><style>.a{fill:#fff;}</style></defs><title>liminal-half</title><polygon class="a" points="501.03 57 505.43 70 476.16 70 480.71 57 457.18 57 435.82 113 460.82 113 469.68 88 511.92 88 520.47 113 546.25 113 525.13 57 501.03 57"/><rect class="a" x="330" y="57" width="24" height="56"/><polygon class="a" points="403 57 403 76 402.28 76 390.27 57 365.92 57 401.01 113 426 113 426 57 403 57"/><rect class="a" x="284" y="57" width="25" height="56"/><rect class="a" x="140" y="57" width="24" height="56"/><rect class="a" x="239" y="57" width="23" height="56"/><polygon class="a" points="208.8 57 201.97 78 201.66 78 194.45 57 171.8 57 191.53 113 210.68 113 230.21 57 208.8 57"/><rect class="a" x="94" y="57" width="24" height="56"/><polygon class="a" points="25 57 0 57 0 113 80 113 80 92 25 92 25 57"/><polygon class="a" points="581 57 556 57 556 113 636 113 636 92 581 92 581 57"/><rect class="a" x="556" width="25" height="57"/><polygon class="a" points="480.71 57 490.88 28 491.19 28 501.03 57 525.13 57 504.01 0 478.54 0 457.18 57 480.71 57"/><rect class="a" x="403" width="23" height="57"/><polygon class="a" points="354 57 354 38 354.02 38 365.92 57 390.27 57 355.13 0 330 0 330 57 354 57"/><rect class="a" x="284" width="25" height="57"/><polygon class="a" points="230.21 57 238.36 33 239 33 239 57 262 57 262 0 226.97 0 208.8 57 230.21 57"/><polygon class="a" points="164 57 164 34 163.84 34 171.8 57 194.45 57 175.24 0 140 0 140 57 164 57"/><rect class="a" x="94" width="24" height="57"/><rect class="a" width="25" height="57"/></svg>